<svg xmlns="http://www.w3.org/2000/svg" xmlns:xlink="http://www.w3.org/1999/xlink" width="300" zoomAndPan="magnify" viewBox="0 0 224.87999 225" height="300" preserveAspectRatio="xMidYMid meet" version="1.2"><defs><clipPath id="2e48526369"><path d="M 0 0.0585938 L 224.761719 0.0585938 L 224.761719 224.9375 L 0 224.9375 Z M 0 0.0585938 "/></clipPath><clipPath id="a2456e8291"><path d="M 112.441406 0.0585938 C 50.339844 0.0585938 0 50.402344 0 112.5 C 0 174.597656 50.339844 224.941406 112.441406 224.941406 C 174.539062 224.941406 224.878906 174.597656 224.878906 112.5 C 224.878906 50.402344 174.539062 0.0585938 112.441406 0.0585938 Z M 112.441406 0.0585938 "/></clipPath></defs><g id="b7dd892ea7"><g clip-rule="nonzero" clip-path="url(#2e48526369)"><g clip-rule="nonzero" clip-path="url(#a2456e8291)"><path style=" stroke:none;fill-rule:nonzero;fill:#38b6ff;fill-opacity:1;" d="M 0 0.0585938 L 224.878906 0.0585938 L 224.878906 224.941406 L 0 224.941406 Z M 0 0.0585938 "/></g></g><path style=" stroke:none;fill-rule:nonzero;fill:#ffffff;fill-opacity:1;" d="M 91.546875 31.449219 L 95.265625 31.449219 L 97.648438 32.046875 L 100.03125 33.234375 L 101.519531 34.425781 L 102.859375 35.765625 L 104.199219 37.851562 L 104.941406 39.636719 L 106.429688 40.082031 L 108.664062 40.527344 L 112.53125 41.570312 L 116.996094 43.058594 L 120.867188 44.695312 L 124.585938 46.480469 L 127.863281 48.269531 L 131.285156 50.5 L 133.816406 52.285156 L 135.75 53.773438 L 137.386719 55.113281 L 139.320312 56.902344 L 141.109375 58.539062 L 144.085938 61.515625 L 145.125 62.703125 L 146.765625 64.640625 L 148.699219 67.171875 L 150.484375 69.699219 L 152.269531 72.527344 L 153.609375 74.910156 L 154.355469 76.546875 L 154.355469 77.886719 L 153.757812 79.523438 L 152.867188 80.566406 L 151.378906 81.308594 L 150.632812 81.457031 L 149.441406 81.457031 L 148.101562 81.011719 L 146.765625 79.820312 L 144.679688 76.25 L 142.296875 72.675781 L 140.363281 70.148438 L 138.429688 67.914062 L 137.386719 66.722656 L 136.046875 65.234375 L 133.515625 62.855469 L 131.878906 61.515625 L 130.09375 60.027344 L 127.414062 58.089844 L 124.886719 56.453125 L 122.652344 55.113281 L 119.378906 53.328125 L 116.550781 51.988281 L 112.234375 50.351562 L 107.917969 49.011719 L 104.347656 48.121094 L 104.046875 48.863281 L 102.710938 50.945312 L 101.070312 52.585938 L 99.433594 53.625 L 97.5 54.519531 L 95.117188 55.113281 L 93.035156 55.261719 L 90.503906 54.816406 L 88.71875 54.222656 L 87.082031 53.328125 L 85.148438 51.839844 L 83.660156 50.054688 L 82.320312 47.523438 L 81.722656 45.441406 L 81.574219 43.953125 L 81.574219 42.613281 L 81.871094 40.378906 L 82.765625 38 L 83.957031 36.0625 L 85.59375 34.277344 L 87.378906 32.9375 L 89.613281 31.894531 Z M 92.441406 38.445312 L 91.101562 38.890625 L 90.058594 39.636719 L 89.164062 40.976562 L 88.71875 42.164062 L 88.570312 43.503906 L 89.015625 45.292969 L 90.058594 46.78125 L 91.398438 47.671875 L 92.738281 48.121094 L 94.078125 48.121094 L 95.417969 47.820312 L 96.753906 46.929688 L 97.796875 45.738281 L 98.394531 44.101562 L 98.394531 42.316406 L 97.648438 40.527344 L 96.605469 39.339844 L 95.117188 38.59375 L 94.671875 38.445312 Z M 92.441406 38.445312 "/><path style=" stroke:none;fill-rule:nonzero;fill:#ffffff;fill-opacity:1;" d="M 173.257812 93.960938 L 181.738281 94.109375 L 183.375 96.339844 L 189.179688 104.378906 L 190.96875 106.757812 L 192.753906 109.289062 L 192.753906 109.585938 L 193.199219 109.4375 L 194.6875 107.355469 L 196.773438 104.527344 L 198.558594 101.996094 L 200.640625 99.167969 L 202.578125 96.488281 L 203.914062 94.703125 L 204.660156 93.960938 L 212.398438 93.960938 L 212.847656 94.109375 L 212.847656 131.316406 L 212.695312 131.464844 L 205.253906 131.464844 L 205.105469 105.867188 L 204.808594 105.867188 L 204.511719 106.609375 L 202.875 108.546875 L 201.535156 110.480469 L 200.195312 112.265625 L 198.707031 114.203125 L 197.070312 116.433594 L 195.285156 118.816406 L 194.09375 120.304688 L 193.347656 120.898438 L 192.457031 120.898438 L 191.710938 120.453125 L 190.222656 118.515625 L 188.4375 115.988281 L 184.269531 110.332031 L 180.996094 105.867188 L 180.996094 105.570312 L 180.699219 105.570312 L 180.699219 131.464844 L 173.851562 131.613281 L 173.105469 131.316406 L 173.105469 94.257812 Z M 173.257812 93.960938 "/><path style=" stroke:none;fill-rule:nonzero;fill:#ffffff;fill-opacity:1;" d="M 126.96875 94.109375 L 145.425781 94.109375 L 148.101562 94.40625 L 150.335938 95 L 152.71875 96.191406 L 154.652344 97.679688 L 155.695312 98.722656 L 157.035156 100.804688 L 157.925781 103.039062 L 158.371094 105.867188 L 158.371094 107.652344 L 157.925781 110.480469 L 157.035156 112.863281 L 155.695312 114.796875 L 154.355469 116.136719 L 152.417969 117.328125 L 149.441406 118.515625 L 151.527344 120.75 L 152.566406 121.941406 L 154.355469 124.023438 L 155.992188 125.808594 L 157.332031 127.296875 L 159.117188 129.382812 L 160.308594 131.019531 L 160.308594 131.464844 L 153.3125 131.613281 L 151.378906 131.464844 L 150.039062 129.976562 L 148.996094 128.785156 L 147.507812 127.148438 L 146.167969 125.511719 L 144.382812 123.578125 L 143.339844 122.386719 L 141.554688 120.304688 L 140.808594 119.410156 L 134.558594 119.261719 L 134.558594 131.316406 L 134.410156 131.464844 L 129.5 131.613281 L 127.414062 131.613281 L 126.96875 131.464844 Z M 134.558594 101.105469 L 134.558594 112.414062 L 145.722656 112.414062 L 147.507812 111.96875 L 148.847656 111.226562 L 149.890625 110.183594 L 150.78125 108.097656 L 150.929688 106.460938 L 150.632812 105.121094 L 149.742188 103.335938 L 148.699219 102.292969 L 147.210938 101.550781 L 145.277344 101.105469 Z M 134.558594 101.105469 "/><path style=" stroke:none;fill-rule:nonzero;fill:#ffffff;fill-opacity:1;" d="M 67.433594 44.398438 L 68.773438 44.546875 L 70.113281 45.144531 L 71.15625 46.035156 L 71.902344 47.523438 L 72.050781 49.011719 L 71.601562 50.5 L 71.007812 51.394531 L 69.964844 52.285156 L 65.351562 54.222656 L 62.820312 55.410156 L 60.140625 56.902344 L 57.015625 58.835938 L 54.488281 60.621094 L 52.550781 62.109375 L 50.914062 63.449219 L 48.535156 65.679688 L 47.492188 66.722656 L 47.195312 66.722656 L 46.894531 67.320312 L 45.257812 68.957031 L 44.21875 70.148438 L 42.28125 72.527344 L 42.582031 73.125 L 43.769531 75.058594 L 44.515625 76.84375 L 44.960938 78.480469 L 45.109375 81.011719 L 44.8125 83.09375 L 44.070312 85.328125 L 42.878906 87.410156 L 41.242188 89.199219 L 40.050781 90.238281 L 38.265625 91.28125 L 36.03125 92.023438 L 34.542969 92.324219 L 31.566406 92.324219 L 29.183594 91.726562 L 27.101562 90.835938 L 25.316406 89.496094 L 23.828125 88.007812 L 22.488281 85.921875 L 21.742188 84.285156 L 21.148438 81.605469 L 21.148438 79.375 L 21.742188 76.695312 L 22.488281 75.058594 L 23.378906 73.570312 L 25.019531 71.636719 L 26.507812 70.445312 L 28.886719 69.253906 L 30.226562 68.808594 L 32.3125 68.507812 L 34.839844 68.507812 L 36.179688 66.722656 L 37.964844 64.640625 L 39.15625 63.152344 L 40.644531 61.664062 L 41.09375 61.066406 L 41.390625 61.066406 L 41.6875 60.472656 L 42.878906 59.429688 L 44.367188 57.941406 L 46.003906 56.601562 L 47.9375 54.964844 L 50.765625 52.882812 L 54.1875 50.648438 L 57.761719 48.566406 L 61.929688 46.480469 L 65.5 44.992188 Z M 32.460938 75.503906 L 30.972656 75.949219 L 29.632812 76.992188 L 28.738281 78.183594 L 28.292969 79.523438 L 28.292969 81.457031 L 28.886719 82.945312 L 29.929688 84.136719 L 30.671875 84.730469 L 32.160156 85.328125 L 34.097656 85.328125 L 35.585938 84.730469 L 36.925781 83.691406 L 37.816406 81.90625 L 37.964844 79.96875 L 37.667969 78.480469 L 36.777344 77.140625 L 35.734375 76.25 L 34.246094 75.652344 L 33.648438 75.503906 Z M 32.460938 75.503906 "/><path style=" stroke:none;fill-rule:nonzero;fill:#ffffff;fill-opacity:1;" d="M 46.746094 154.980469 L 48.382812 154.980469 L 49.722656 155.578125 L 50.914062 156.617188 L 52.851562 158.40625 L 54.933594 160.042969 L 57.164062 161.828125 L 61.183594 164.507812 L 64.609375 166.441406 L 67.882812 168.078125 L 70.710938 169.269531 L 75.769531 171.054688 L 79.191406 171.949219 L 79.789062 171.949219 L 80.679688 170.164062 L 81.871094 168.675781 L 83.0625 167.484375 L 85.148438 166.144531 L 86.933594 165.398438 L 88.71875 164.953125 L 89.910156 164.804688 L 91.398438 164.804688 L 93.929688 165.25 L 95.863281 165.996094 L 97.796875 167.1875 L 99.582031 168.824219 L 100.773438 170.3125 L 101.964844 172.691406 L 102.558594 175.074219 L 102.558594 178.496094 L 101.964844 180.730469 L 101.21875 182.515625 L 99.882812 184.449219 L 98.242188 186.089844 L 96.160156 187.425781 L 93.777344 188.320312 L 91.992188 188.617188 L 89.015625 188.617188 L 86.636719 188.023438 L 84.253906 186.832031 L 82.617188 185.640625 L 81.128906 184.003906 L 80.085938 182.367188 L 79.191406 180.582031 L 75.324219 179.6875 L 70.859375 178.347656 L 66.988281 176.859375 L 63.269531 175.222656 L 59.695312 173.4375 L 55.976562 171.203125 L 53.148438 169.269531 L 50.765625 167.484375 L 48.683594 165.847656 L 46.894531 164.210938 L 45.707031 163.167969 L 44.21875 161.679688 L 43.472656 160.191406 L 43.324219 159 L 43.769531 157.214844 L 44.8125 155.875 L 46.300781 155.128906 Z M 89.613281 171.949219 L 88.273438 172.542969 L 87.082031 173.4375 L 86.1875 174.777344 L 85.890625 175.667969 L 85.890625 177.902344 L 86.335938 179.09375 L 87.378906 180.433594 L 88.71875 181.324219 L 89.761719 181.621094 L 91.546875 181.621094 L 93.183594 181.027344 L 94.375 180.132812 L 95.265625 178.644531 L 95.566406 177.605469 L 95.566406 175.96875 L 94.96875 174.332031 L 94.078125 173.140625 L 92.589844 172.246094 L 91.695312 171.949219 Z M 89.613281 171.949219 "/><path style=" stroke:none;fill-rule:nonzero;fill:#ffffff;fill-opacity:1;" d="M 79.789062 94.109375 L 87.230469 94.109375 L 87.378906 94.257812 L 87.378906 124.472656 L 106.28125 124.621094 L 106.28125 131.464844 L 103.898438 131.613281 L 80.382812 131.613281 L 79.789062 131.464844 Z M 79.789062 94.109375 "/><path style=" stroke:none;fill-rule:nonzero;fill:#ffffff;fill-opacity:1;" d="M 144.085938 144.117188 L 145.277344 144.117188 L 146.613281 144.5625 L 148.101562 145.902344 L 148.699219 147.09375 L 148.847656 147.539062 L 148.847656 148.878906 L 148.253906 150.515625 L 146.316406 153.792969 L 144.085938 157.066406 L 142.296875 159.445312 L 140.511719 161.53125 L 139.171875 163.167969 L 138.132812 164.210938 L 137.089844 165.398438 L 135.453125 167.039062 L 134.261719 168.078125 L 132.773438 169.417969 L 131.285156 170.609375 L 128.605469 172.691406 L 124.140625 175.667969 L 120.570312 177.753906 L 118.039062 178.945312 L 117.445312 179.09375 L 116.253906 179.09375 L 114.914062 178.644531 L 113.574219 177.457031 L 112.976562 176.265625 L 112.828125 175.820312 L 112.828125 173.882812 L 113.425781 172.542969 L 114.46875 171.503906 L 117.890625 169.566406 L 120.867188 167.78125 L 123.84375 165.699219 L 125.925781 164.0625 L 128.160156 162.125 L 130.539062 159.894531 L 132.625 157.808594 L 133.667969 156.617188 L 135.304688 154.683594 L 137.238281 152.152344 L 139.023438 149.476562 L 140.363281 147.242188 L 141.554688 145.457031 L 142.746094 144.5625 Z M 144.085938 144.117188 "/><path style=" stroke:none;fill-rule:nonzero;fill:#ffffff;fill-opacity:1;" d="M 24.867188 100.804688 L 26.207031 100.804688 L 27.695312 101.253906 L 28.738281 102.144531 L 29.335938 103.039062 L 29.632812 103.933594 L 29.632812 113.160156 L 30.226562 118.667969 L 30.972656 122.832031 L 32.160156 127.597656 L 33.648438 132.0625 L 35.734375 136.824219 L 37.816406 140.84375 L 38.113281 141.882812 L 38.113281 142.925781 L 37.667969 144.414062 L 36.328125 145.902344 L 35.4375 146.347656 L 34.691406 146.5 L 33.203125 146.5 L 31.863281 146.050781 L 30.671875 145.011719 L 29.484375 143.074219 L 27.546875 139.207031 L 26.207031 136.078125 L 24.570312 131.613281 L 23.378906 127.449219 L 22.636719 124.320312 L 22.042969 121.195312 L 21.445312 116.582031 L 21.148438 112.714844 L 21.148438 106.460938 L 21.445312 103.78125 L 22.042969 102.59375 L 22.785156 101.699219 L 24.125 100.957031 Z M 24.867188 100.804688 "/><path style=" stroke:none;fill-rule:nonzero;fill:#ffffff;fill-opacity:1;" d="M 74.726562 69.105469 L 76.515625 69.105469 L 78.597656 69.550781 L 80.53125 70.59375 L 82.171875 72.230469 L 83.808594 72.082031 L 85.890625 71.785156 L 94.078125 71.785156 L 98.691406 72.527344 L 102.558594 73.570312 L 105.6875 74.761719 L 109.109375 76.398438 L 111.339844 77.738281 L 114.316406 79.820312 L 116.253906 81.457031 L 118.039062 83.09375 L 118.933594 84.433594 L 118.78125 85.625 L 118.1875 86.519531 L 117.292969 87.261719 L 116.253906 87.410156 L 115.210938 86.964844 L 113.574219 85.625 L 112.53125 84.582031 L 109.703125 82.5 L 106.132812 80.417969 L 103.304688 79.078125 L 98.839844 77.589844 L 95.265625 76.84375 L 91.84375 76.546875 L 88.421875 76.546875 L 83.808594 76.84375 L 83.808594 78.035156 L 83.507812 79.523438 L 82.320312 81.90625 L 81.128906 83.242188 L 79.640625 84.285156 L 77.554688 85.03125 L 76.664062 85.179688 L 74.578125 85.179688 L 72.496094 84.582031 L 71.007812 83.691406 L 69.519531 82.351562 L 68.476562 80.714844 L 67.882812 79.078125 L 67.734375 78.332031 L 67.734375 75.949219 L 68.328125 73.867188 L 69.222656 72.378906 L 70.5625 70.890625 L 72.199219 69.847656 L 74.132812 69.253906 Z M 75.175781 73.867188 L 73.6875 74.460938 L 72.792969 75.652344 L 72.496094 76.398438 L 72.496094 77.886719 L 73.089844 79.078125 L 74.28125 80.117188 L 75.324219 80.417969 L 76.960938 80.265625 L 78.152344 79.523438 L 78.746094 78.480469 L 78.894531 78.183594 L 78.894531 76.101562 L 78.300781 75.058594 L 77.257812 74.164062 L 76.367188 73.867188 Z M 75.175781 73.867188 "/><path style=" stroke:none;fill-rule:nonzero;fill:#ffffff;fill-opacity:1;" d="M 63.714844 82.203125 L 64.90625 82.351562 L 65.796875 82.796875 L 66.542969 84.285156 L 66.394531 85.476562 L 65.351562 86.816406 L 63.121094 89.199219 L 61.035156 92.023438 L 59.101562 95.449219 L 57.761719 98.425781 L 56.421875 102.292969 L 56.570312 102.890625 L 57.910156 103.933594 L 59.101562 105.121094 L 60.292969 107.503906 L 60.589844 109.140625 L 60.589844 110.628906 L 60.292969 112.265625 L 59.101562 114.648438 L 57.910156 115.988281 L 56.421875 117.027344 L 54.339844 117.773438 L 53.296875 117.921875 L 51.808594 117.921875 L 50.023438 117.625 L 47.9375 116.582031 L 46.449219 115.242188 L 45.40625 113.605469 L 44.8125 112.265625 L 44.515625 111.074219 L 44.515625 108.84375 L 45.109375 106.609375 L 46.003906 105.121094 L 47.195312 103.78125 L 48.535156 102.890625 L 49.722656 102.292969 L 51.511719 101.996094 L 51.660156 101.253906 L 52.402344 98.871094 L 53.445312 96.042969 L 54.488281 93.664062 L 55.976562 90.984375 L 57.316406 88.898438 L 59.101562 86.519531 L 60.738281 84.582031 L 62.078125 83.09375 L 63.269531 82.351562 Z M 51.957031 106.609375 L 50.765625 107.058594 L 50.023438 107.652344 L 49.277344 109.140625 L 49.277344 110.628906 L 50.023438 112.117188 L 51.363281 113.011719 L 51.808594 113.160156 L 53.296875 113.160156 L 54.785156 112.414062 L 55.527344 111.375 L 55.675781 110.925781 L 55.675781 108.84375 L 55.082031 107.800781 L 54.039062 106.910156 L 53.148438 106.609375 Z M 51.957031 106.609375 "/><path style=" stroke:none;fill-rule:nonzero;fill:#ffffff;fill-opacity:1;" d="M 104.941406 138.460938 L 108.214844 138.460938 L 110 139.054688 L 111.488281 139.949219 L 112.53125 140.84375 L 113.574219 142.332031 L 114.316406 143.96875 L 114.617188 145.160156 L 114.617188 147.539062 L 114.316406 148.878906 L 113.277344 150.964844 L 111.9375 152.453125 L 110.449219 153.492188 L 108.960938 154.089844 L 107.472656 154.386719 L 105.535156 154.386719 L 103.75 153.941406 L 101.964844 153.046875 L 100.328125 151.558594 L 99.882812 151.113281 L 94.375 151.707031 L 89.460938 151.707031 L 84.550781 151.113281 L 80.382812 150.070312 L 78.003906 149.175781 L 77.109375 148.582031 L 76.664062 147.988281 L 76.515625 147.539062 L 76.515625 146.199219 L 77.109375 145.308594 L 77.855469 144.710938 L 78.152344 144.5625 L 79.191406 144.5625 L 83.660156 145.902344 L 86.785156 146.5 L 90.058594 146.796875 L 94.523438 146.796875 L 97.351562 146.5 L 98.542969 146.347656 L 98.542969 145.160156 L 99.136719 143.222656 L 100.03125 141.585938 L 101.816406 139.800781 L 103.898438 138.757812 Z M 106.28125 143.074219 L 105.089844 143.371094 L 104.046875 144.117188 L 103.453125 145.308594 L 103.304688 145.753906 L 103.304688 147.09375 L 104.046875 148.582031 L 104.941406 149.324219 L 106.28125 149.773438 L 107.621094 149.625 L 108.8125 148.878906 L 109.40625 148.136719 L 109.851562 146.945312 L 109.851562 145.605469 L 109.257812 144.414062 L 108.511719 143.671875 L 107.621094 143.222656 Z M 106.28125 143.074219 "/><path style=" stroke:none;fill-rule:nonzero;fill:#ffffff;fill-opacity:1;" d="M 54.339844 121.195312 L 55.527344 121.195312 L 56.421875 121.644531 L 57.015625 122.386719 L 58.953125 126.703125 L 60.441406 129.53125 L 62.078125 131.914062 L 63.714844 133.996094 L 65.203125 135.632812 L 65.796875 136.230469 L 65.796875 136.527344 L 66.394531 136.824219 L 68.03125 138.3125 L 69.519531 139.503906 L 70.113281 140.246094 L 70.261719 140.695312 L 70.261719 141.734375 L 69.667969 142.925781 L 69.222656 143.371094 L 68.328125 143.671875 L 67.285156 143.671875 L 65.796875 142.777344 L 64.160156 141.4375 L 62.226562 139.652344 L 61.035156 138.460938 L 59.992188 137.269531 L 58.207031 135.039062 L 56.125 131.914062 L 54.636719 129.234375 L 53.445312 126.703125 L 52.550781 124.023438 L 52.699219 122.683594 L 53.296875 121.792969 Z M 54.339844 121.195312 "/></g></svg>